<svg xmlns="http://www.w3.org/2000/svg" viewBox="0 0 1200 820" role="img" aria-label="Heimdall Risk Control and Business Intelligence logo">
  <defs>
    <linearGradient id="gold" x1="0" x2="1" y1="0" y2="1">
      <stop offset="0" stop-color="#fff2b5"/>
      <stop offset="0.25" stop-color="#e0b34c"/>
      <stop offset="0.55" stop-color="#8b5d16"/>
      <stop offset="0.78" stop-color="#f2cf74"/>
      <stop offset="1" stop-color="#6f470c"/>
    </linearGradient>
    <linearGradient id="goldDark" x1="0" x2="1" y1="0" y2="1">
      <stop offset="0" stop-color="#b98522"/>
      <stop offset="0.45" stop-color="#3b2607"/>
      <stop offset="1" stop-color="#d7a946"/>
    </linearGradient>
    <radialGradient id="shine" cx="42%" cy="20%" r="70%">
      <stop offset="0" stop-color="#fff6c8" stop-opacity="0.9"/>
      <stop offset="0.35" stop-color="#d9a23b" stop-opacity="0.55"/>
      <stop offset="1" stop-color="#171006" stop-opacity="0.2"/>
    </radialGradient>
    <filter id="shadow" x="-20%" y="-20%" width="140%" height="140%">
      <feDropShadow dx="0" dy="14" stdDeviation="18" flood-color="#000" flood-opacity="0.72"/>
      <feDropShadow dx="0" dy="0" stdDeviation="8" flood-color="#e0b34c" flood-opacity="0.28"/>
    </filter>
  </defs>

  <rect width="1200" height="820" fill="none"/>
  <g filter="url(#shadow)">
    <path d="M138 216 C302 252 420 292 505 355 L492 388 C368 320 236 292 66 270 Z" fill="url(#goldDark)" stroke="url(#gold)" stroke-width="7"/>
    <path d="M176 324 C330 337 436 378 514 435 L501 466 C374 406 258 392 106 384 Z" fill="url(#goldDark)" stroke="url(#gold)" stroke-width="7"/>
    <path d="M226 431 C350 432 443 464 522 512 L512 543 C397 499 308 493 165 500 Z" fill="url(#goldDark)" stroke="url(#gold)" stroke-width="7"/>

    <path d="M1062 216 C898 252 780 292 695 355 L708 388 C832 320 964 292 1134 270 Z" fill="url(#goldDark)" stroke="url(#gold)" stroke-width="7"/>
    <path d="M1024 324 C870 337 764 378 686 435 L699 466 C826 406 942 392 1094 384 Z" fill="url(#goldDark)" stroke="url(#gold)" stroke-width="7"/>
    <path d="M974 431 C850 432 757 464 678 512 L688 543 C803 499 892 493 1035 500 Z" fill="url(#goldDark)" stroke="url(#gold)" stroke-width="7"/>

    <path d="M600 48 L626 113 L600 148 L574 113 Z" fill="url(#gold)" stroke="#6f470c" stroke-width="5"/>
    <circle cx="579" cy="139" r="10" fill="#4b2c06" stroke="#d8aa44" stroke-width="5"/>
    <circle cx="621" cy="139" r="10" fill="#4b2c06" stroke="#d8aa44" stroke-width="5"/>

    <path d="M600 133 L869 235 L835 528 C804 620 725 681 600 724 C475 681 396 620 365 528 L331 235 Z" fill="#120d06" stroke="url(#gold)" stroke-width="24"/>
    <path d="M600 176 L820 260 L793 512 C768 586 701 637 600 675 C499 637 432 586 407 512 L380 260 Z" fill="url(#shine)" stroke="#8d641d" stroke-width="10"/>

    <path d="M600 228 C526 239 481 294 477 372 L477 458 L551 438 L583 513 L583 294 Z" fill="url(#goldDark)" stroke="url(#gold)" stroke-width="8"/>
    <path d="M600 228 C674 239 719 294 723 372 L723 458 L649 438 L617 513 L617 294 Z" fill="url(#gold)" stroke="#6d4309" stroke-width="8"/>
    <path d="M600 190 L629 317 L600 496 L571 317 Z" fill="url(#gold)" stroke="#5b3709" stroke-width="6"/>
    <path d="M479 375 C515 392 548 397 584 391 L556 434 C524 438 501 427 477 407 Z" fill="#100b05" stroke="url(#gold)" stroke-width="5"/>
    <path d="M721 375 C685 392 652 397 616 391 L644 434 C676 438 699 427 723 407 Z" fill="#100b05" stroke="url(#gold)" stroke-width="5"/>
    <path d="M535 501 L584 540 L554 606 L507 567 Z" fill="url(#goldDark)" stroke="url(#gold)" stroke-width="7"/>
    <path d="M665 501 L616 540 L646 606 L693 567 Z" fill="url(#gold)" stroke="#6d4309" stroke-width="7"/>
  </g>

  <g fill="url(#gold)" stroke="#5b3709" stroke-width="2" text-anchor="middle">
    <text x="600" y="760" font-family="Georgia, 'Times New Roman', serif" font-size="122" letter-spacing="24">HEIMDALL</text>
    <path d="M360 786 H558 M642 786 H840" stroke="url(#gold)" stroke-width="6"/>
    <path d="M600 770 L616 786 L600 802 L584 786 Z" fill="url(#gold)"/>
    <text x="600" y="815" font-family="Georgia, 'Times New Roman', serif" font-size="25" letter-spacing="9">RISK CONTROL &amp; BUSINESS INTELLIGENCE</text>
  </g>
</svg>
